<svg height="512pt" viewBox="0 0 512 512" width="512pt" xmlns="http://www.w3.org/2000/svg"><g fill-rule="evenodd"><path d="m481.101562 512h-450.203124c-17.066407 0-30.898438-13.832031-30.898438-30.898438v-392.824218h512v392.824218c0 17.066407-13.832031 30.898438-30.898438 30.898438zm0 0" fill="#e7eced"/><path d="m512 105.929688h-512v-75.03125c0-17.066407 13.832031-30.898438 30.898438-30.898438h450.203124c17.066407 0 30.898438 13.832031 30.898438 30.898438zm0 0" fill="#28384c"/><path d="m35.308594 35.308594h35.3125v35.3125h-35.3125zm0 0" fill="#dd352e"/><path d="m105.929688 35.308594h35.3125v35.3125h-35.3125zm0 0" fill="#ebba16"/><path d="m176.550781 35.308594h35.3125v35.3125h-35.3125zm0 0" fill="#23a24d"/></g><path d="m35.308594 141.242188h441.382812v335.449218h-441.382812zm0 0" fill="#ed8a19"/><path d="m402.574219 423.722656h-293.148438c-11.679687 0-21.148437-9.46875-21.148437-21.148437v-187.214844c0-11.679687 9.46875-21.152344 21.148437-21.152344h293.148438c11.679687 0 21.148437 9.472657 21.148437 21.152344v187.214844c0 11.679687-9.46875 21.148437-21.148437 21.148437zm0 0" fill="#366db6"/><path d="m232.28125 300.136719h-93.804688c-8.226562 0-14.890624-6.664063-14.890624-14.890625v-40.84375c0-8.21875 6.664062-14.886719 14.890624-14.886719h93.8125c8.21875 0 14.882813 6.667969 14.882813 14.894531v40.84375c0 8.21875-6.664063 14.882813-14.890625 14.882813zm0 0" fill="#ebba16"/><path d="m150.070312 229.515625h17.652344v70.621094h-17.652344zm0 0" fill="#c19414"/><path d="m158.898438 256h88.273437v17.65625h-88.273437zm0 0" fill="#c19414"/><path d="m388.414062 264.828125c0 14.625-11.855468 26.480469-26.484374 26.480469-14.625 0-26.480469-11.855469-26.480469-26.480469s11.855469-26.484375 26.480469-26.484375c14.628906 0 26.484374 11.859375 26.484374 26.484375zm0 0" fill="#ed8a19"/><path d="m247.171875 361.929688h-123.585937c-4.871094 0-8.828126-3.945313-8.828126-8.828126 0-4.878906 3.957032-8.824218 8.828126-8.824218h123.585937c4.875 0 8.828125 3.945312 8.828125 8.824218 0 4.882813-3.953125 8.828126-8.828125 8.828126zm0 0" fill="#1f436d"/><path d="m388.414062 361.929688h-26.484374c-4.871094 0-8.828126-3.945313-8.828126-8.828126 0-4.878906 3.957032-8.824218 8.828126-8.824218h26.484374c4.871094 0 8.828126 3.945312 8.828126 8.824218 0 4.882813-3.957032 8.828126-8.828126 8.828126zm0 0" fill="#1f436d"/><path d="m326.621094 361.929688h-44.136719c-4.875 0-8.828125-3.945313-8.828125-8.828126 0-4.878906 3.953125-8.824218 8.828125-8.824218h44.136719c4.871094 0 8.828125 3.945312 8.828125 8.824218 0 4.882813-3.957031 8.828126-8.828125 8.828126zm0 0" fill="#1f436d"/><path d="m335.449219 264.828125c0-7.8125 3.441406-14.761719 8.828125-19.605469-4.699219-4.230468-10.839844-6.878906-17.65625-6.878906-14.628906 0-26.484375 11.855469-26.484375 26.484375 0 14.625 11.855469 26.480469 26.484375 26.480469 6.816406 0 12.957031-2.648438 17.65625-6.875-5.386719-4.847656-8.828125-11.792969-8.828125-19.605469zm0 0" fill="#dd352e"/><path d="m388.414062 397.242188h-123.585937c-4.875 0-8.828125-3.945313-8.828125-8.828126 0-4.882812 3.953125-8.828124 8.828125-8.828124h123.585937c4.871094 0 8.828126 3.945312 8.828126 8.828124 0 4.882813-3.957032 8.828126-8.828126 8.828126zm0 0" fill="#1f436d"/><path d="m150.070312 397.242188h-26.484374c-4.871094 0-8.828126-3.945313-8.828126-8.828126 0-4.882812 3.957032-8.828124 8.828126-8.828124h26.484374c4.871094 0 8.828126 3.945312 8.828126 8.828124 0 4.882813-3.957032 8.828126-8.828126 8.828126zm0 0" fill="#1f436d"/><path d="m229.515625 397.242188h-44.136719c-4.871094 0-8.828125-3.945313-8.828125-8.828126 0-4.882812 3.957031-8.828124 8.828125-8.828124h44.136719c4.875 0 8.828125 3.945312 8.828125 8.828124 0 4.882813-3.953125 8.828126-8.828125 8.828126zm0 0" fill="#1f436d"/></svg>